<?xml version="1.0" encoding="UTF-8" standalone="no"?>
<!DOCTYPE svg PUBLIC "-//W3C//DTD SVG 1.1//EN"
 "http://www.w3.org/Graphics/SVG/1.1/DTD/svg11.dtd">
<!-- Generated by graphviz version 14.1.2 (0)
 -->
<!-- Pages: 1 -->
<svg width="1171pt" height="251pt"
 viewBox="0.00 0.00 1171.00 251.00" xmlns="http://www.w3.org/2000/svg" xmlns:xlink="http://www.w3.org/1999/xlink">
<g id="graph0" class="graph" transform="scale(1 1) rotate(0) translate(4 247.23)">
<polygon fill="white" stroke="none" points="-4,4 -4,-247.23 1167.35,-247.23 1167.35,4 -4,4"/>
<g id="clust1" class="cluster">
<title>clusterday (247)</title>
<path fill="none" stroke="black" d="M20,-8C20,-8 338,-8 338,-8 344,-8 350,-14 350,-20 350,-20 350,-223.23 350,-223.23 350,-229.23 344,-235.23 338,-235.23 338,-235.23 20,-235.23 20,-235.23 14,-235.23 8,-229.23 8,-223.23 8,-223.23 8,-20 8,-20 8,-14 14,-8 20,-8"/>
<text xml:space="preserve" text-anchor="middle" x="315.75" y="-15.2" font-family="Times New Roman,serif" font-size="14.00">day (247)</text>
</g>
<!-- y_hat -->
<g id="node1" class="node">
<title>y_hat</title>
<ellipse fill="lightgrey" stroke="black" cx="301" cy="-81.16" rx="41.01" ry="40.66"/>
<text xml:space="preserve" text-anchor="middle" x="301" y="-92.61" font-family="Times New Roman,serif" font-size="14.00">y_hat</text>
<text xml:space="preserve" text-anchor="middle" x="301" y="-76.11" font-family="Times New Roman,serif" font-size="14.00">~</text>
<text xml:space="preserve" text-anchor="middle" x="301" y="-59.61" font-family="Times New Roman,serif" font-size="14.00">Normal</text>
</g>
<!-- reserves -->
<g id="node2" class="node">
<title>reserves</title>
<path fill="lightgrey" stroke="black" d="M64.12,-227.23C64.12,-227.23 27.88,-227.23 27.88,-227.23 21.88,-227.23 15.88,-221.23 15.88,-215.23 15.88,-215.23 15.88,-181.73 15.88,-181.73 15.88,-175.73 21.88,-169.73 27.88,-169.73 27.88,-169.73 64.12,-169.73 64.12,-169.73 70.12,-169.73 76.12,-175.73 76.12,-181.73 76.12,-181.73 76.12,-215.23 76.12,-215.23 76.12,-221.23 70.12,-227.23 64.12,-227.23"/>
<text xml:space="preserve" text-anchor="middle" x="46" y="-209.93" font-family="Times New Roman,serif" font-size="14.00">reserves</text>
<text xml:space="preserve" text-anchor="middle" x="46" y="-193.43" font-family="Times New Roman,serif" font-size="14.00">~</text>
<text xml:space="preserve" text-anchor="middle" x="46" y="-176.93" font-family="Times New Roman,serif" font-size="14.00">Data</text>
</g>
<!-- reserves&#45;&gt;y_hat -->
<g id="edge7" class="edge">
<title>reserves&#45;&gt;y_hat</title>
<path fill="none" stroke="black" d="M70.1,-169.6C74.73,-165.26 79.78,-161.13 85,-157.82 136.5,-125.15 203.89,-104.45 249.61,-93.12"/>
<polygon fill="black" stroke="black" points="250.37,-96.54 259.27,-90.79 248.73,-89.73 250.37,-96.54"/>
</g>
<!-- leverage -->
<g id="node3" class="node">
<title>leverage</title>
<path fill="lightgrey" stroke="black" d="M143.88,-227.23C143.88,-227.23 106.12,-227.23 106.12,-227.23 100.12,-227.23 94.12,-221.23 94.12,-215.23 94.12,-215.23 94.12,-181.73 94.12,-181.73 94.12,-175.73 100.12,-169.73 106.12,-169.73 106.12,-169.73 143.88,-169.73 143.88,-169.73 149.88,-169.73 155.88,-175.73 155.88,-181.73 155.88,-181.73 155.88,-215.23 155.88,-215.23 155.88,-221.23 149.88,-227.23 143.88,-227.23"/>
<text xml:space="preserve" text-anchor="middle" x="125" y="-209.93" font-family="Times New Roman,serif" font-size="14.00">leverage</text>
<text xml:space="preserve" text-anchor="middle" x="125" y="-193.43" font-family="Times New Roman,serif" font-size="14.00">~</text>
<text xml:space="preserve" text-anchor="middle" x="125" y="-176.93" font-family="Times New Roman,serif" font-size="14.00">Data</text>
</g>
<!-- leverage&#45;&gt;y_hat -->
<g id="edge2" class="edge">
<title>leverage&#45;&gt;y_hat</title>
<path fill="none" stroke="black" d="M151.19,-169.53C155.62,-165.39 160.31,-161.34 165,-157.82 192.68,-137.02 226.72,-118.09 253.82,-104.36"/>
<polygon fill="black" stroke="black" points="255.1,-107.64 262.48,-100.04 251.97,-101.37 255.1,-107.64"/>
</g>
<!-- end_of_month -->
<g id="node4" class="node">
<title>end_of_month</title>
<path fill="lightgrey" stroke="black" d="M257.75,-227.23C257.75,-227.23 186.25,-227.23 186.25,-227.23 180.25,-227.23 174.25,-221.23 174.25,-215.23 174.25,-215.23 174.25,-181.73 174.25,-181.73 174.25,-175.73 180.25,-169.73 186.25,-169.73 186.25,-169.73 257.75,-169.73 257.75,-169.73 263.75,-169.73 269.75,-175.73 269.75,-181.73 269.75,-181.73 269.75,-215.23 269.75,-215.23 269.75,-221.23 263.75,-227.23 257.75,-227.23"/>
<text xml:space="preserve" text-anchor="middle" x="222" y="-209.93" font-family="Times New Roman,serif" font-size="14.00">end_of_month</text>
<text xml:space="preserve" text-anchor="middle" x="222" y="-193.43" font-family="Times New Roman,serif" font-size="14.00">~</text>
<text xml:space="preserve" text-anchor="middle" x="222" y="-176.93" font-family="Times New Roman,serif" font-size="14.00">Data</text>
</g>
<!-- end_of_month&#45;&gt;y_hat -->
<g id="edge5" class="edge">
<title>end_of_month&#45;&gt;y_hat</title>
<path fill="none" stroke="black" d="M241.33,-169.27C250.47,-155.92 261.58,-139.7 271.73,-124.88"/>
<polygon fill="black" stroke="black" points="274.61,-126.88 277.37,-116.65 268.83,-122.92 274.61,-126.88"/>
</g>
<!-- rrp -->
<g id="node5" class="node">
<title>rrp</title>
<path fill="lightgrey" stroke="black" d="M330,-227.23C330,-227.23 300,-227.23 300,-227.23 294,-227.23 288,-221.23 288,-215.23 288,-215.23 288,-181.73 288,-181.73 288,-175.73 294,-169.73 300,-169.73 300,-169.73 330,-169.73 330,-169.73 336,-169.73 342,-175.73 342,-181.73 342,-181.73 342,-215.23 342,-215.23 342,-221.23 336,-227.23 330,-227.23"/>
<text xml:space="preserve" text-anchor="middle" x="315" y="-209.93" font-family="Times New Roman,serif" font-size="14.00">rrp</text>
<text xml:space="preserve" text-anchor="middle" x="315" y="-193.43" font-family="Times New Roman,serif" font-size="14.00">~</text>
<text xml:space="preserve" text-anchor="middle" x="315" y="-176.93" font-family="Times New Roman,serif" font-size="14.00">Data</text>
</g>
<!-- rrp&#45;&gt;y_hat -->
<g id="edge10" class="edge">
<title>rrp&#45;&gt;y_hat</title>
<path fill="none" stroke="black" d="M311.58,-169.27C310.25,-158.34 308.69,-145.49 307.18,-133.06"/>
<polygon fill="black" stroke="black" points="310.68,-132.84 306,-123.34 303.73,-133.68 310.68,-132.84"/>
</g>
<!-- sigma -->
<g id="node6" class="node">
<title>sigma</title>
<ellipse fill="none" stroke="black" cx="417" cy="-198.48" rx="57.45" ry="40.66"/>
<text xml:space="preserve" text-anchor="middle" x="417" y="-209.93" font-family="Times New Roman,serif" font-size="14.00">sigma</text>
<text xml:space="preserve" text-anchor="middle" x="417" y="-193.43" font-family="Times New Roman,serif" font-size="14.00">~</text>
<text xml:space="preserve" text-anchor="middle" x="417" y="-176.93" font-family="Times New Roman,serif" font-size="14.00">Exponential</text>
</g>
<!-- sigma&#45;&gt;y_hat -->
<g id="edge1" class="edge">
<title>sigma&#45;&gt;y_hat</title>
<path fill="none" stroke="black" d="M384.07,-164.74C369.6,-150.36 352.56,-133.41 337.68,-118.63"/>
<polygon fill="black" stroke="black" points="340.31,-116.3 330.75,-111.73 335.37,-121.26 340.31,-116.3"/>
</g>
<!-- beta_end_of_month -->
<g id="node7" class="node">
<title>beta_end_of_month</title>
<ellipse fill="none" stroke="black" cx="581" cy="-198.48" rx="88.21" ry="40.66"/>
<text xml:space="preserve" text-anchor="middle" x="581" y="-209.93" font-family="Times New Roman,serif" font-size="14.00">beta_end_of_month</text>
<text xml:space="preserve" text-anchor="middle" x="581" y="-193.43" font-family="Times New Roman,serif" font-size="14.00">~</text>
<text xml:space="preserve" text-anchor="middle" x="581" y="-176.93" font-family="Times New Roman,serif" font-size="14.00">Normal</text>
</g>
<!-- beta_end_of_month&#45;&gt;y_hat -->
<g id="edge3" class="edge">
<title>beta_end_of_month&#45;&gt;y_hat</title>
<path fill="none" stroke="black" d="M516.06,-170.73C465.21,-149.79 395.6,-121.12 349.52,-102.14"/>
<polygon fill="black" stroke="black" points="350.89,-98.92 340.31,-98.35 348.22,-105.39 350.89,-98.92"/>
</g>
<!-- beta_rrp -->
<g id="node8" class="node">
<title>beta_rrp</title>
<ellipse fill="none" stroke="black" cx="730" cy="-198.48" rx="43.13" ry="40.66"/>
<text xml:space="preserve" text-anchor="middle" x="730" y="-209.93" font-family="Times New Roman,serif" font-size="14.00">beta_rrp</text>
<text xml:space="preserve" text-anchor="middle" x="730" y="-193.43" font-family="Times New Roman,serif" font-size="14.00">~</text>
<text xml:space="preserve" text-anchor="middle" x="730" y="-176.93" font-family="Times New Roman,serif" font-size="14.00">Normal</text>
</g>
<!-- beta_rrp&#45;&gt;y_hat -->
<g id="edge4" class="edge">
<title>beta_rrp&#45;&gt;y_hat</title>
<path fill="none" stroke="black" d="M698.72,-170.08C692.21,-165.42 685.14,-161.05 678,-157.82 569.32,-108.65 428.68,-91.26 353.64,-85.24"/>
<polygon fill="black" stroke="black" points="353.93,-81.75 343.69,-84.48 353.39,-88.73 353.93,-81.75"/>
</g>
<!-- beta_reserves -->
<g id="node9" class="node">
<title>beta_reserves</title>
<ellipse fill="none" stroke="black" cx="854" cy="-198.48" rx="63.29" ry="40.66"/>
<text xml:space="preserve" text-anchor="middle" x="854" y="-209.93" font-family="Times New Roman,serif" font-size="14.00">beta_reserves</text>
<text xml:space="preserve" text-anchor="middle" x="854" y="-193.43" font-family="Times New Roman,serif" font-size="14.00">~</text>
<text xml:space="preserve" text-anchor="middle" x="854" y="-176.93" font-family="Times New Roman,serif" font-size="14.00">Normal</text>
</g>
<!-- beta_reserves&#45;&gt;y_hat -->
<g id="edge6" class="edge">
<title>beta_reserves&#45;&gt;y_hat</title>
<path fill="none" stroke="black" d="M809.01,-169.61C800.29,-165.11 791.05,-160.91 782,-157.82 632.01,-106.49 443.66,-89.76 353.63,-84.48"/>
<polygon fill="black" stroke="black" points="354.06,-81 343.88,-83.94 353.67,-87.99 354.06,-81"/>
</g>
<!-- alpha -->
<g id="node10" class="node">
<title>alpha</title>
<ellipse fill="none" stroke="black" cx="976" cy="-198.48" rx="41.01" ry="40.66"/>
<text xml:space="preserve" text-anchor="middle" x="976" y="-209.93" font-family="Times New Roman,serif" font-size="14.00">alpha</text>
<text xml:space="preserve" text-anchor="middle" x="976" y="-193.43" font-family="Times New Roman,serif" font-size="14.00">~</text>
<text xml:space="preserve" text-anchor="middle" x="976" y="-176.93" font-family="Times New Roman,serif" font-size="14.00">Normal</text>
</g>
<!-- alpha&#45;&gt;y_hat -->
<g id="edge8" class="edge">
<title>alpha&#45;&gt;y_hat</title>
<path fill="none" stroke="black" d="M946.51,-169.82C940.14,-165.12 933.16,-160.81 926,-157.82 822.71,-114.69 484.63,-92.14 353.57,-84.85"/>
<polygon fill="black" stroke="black" points="353.97,-81.37 343.79,-84.31 353.59,-88.36 353.97,-81.37"/>
</g>
<!-- beta_leverage -->
<g id="node11" class="node">
<title>beta_leverage</title>
<ellipse fill="none" stroke="black" cx="1099" cy="-198.48" rx="64.35" ry="40.66"/>
<text xml:space="preserve" text-anchor="middle" x="1099" y="-209.93" font-family="Times New Roman,serif" font-size="14.00">beta_leverage</text>
<text xml:space="preserve" text-anchor="middle" x="1099" y="-193.43" font-family="Times New Roman,serif" font-size="14.00">~</text>
<text xml:space="preserve" text-anchor="middle" x="1099" y="-176.93" font-family="Times New Roman,serif" font-size="14.00">Normal</text>
</g>
<!-- beta_leverage&#45;&gt;y_hat -->
<g id="edge9" class="edge">
<title>beta_leverage&#45;&gt;y_hat</title>
<path fill="none" stroke="black" d="M1053.48,-169.23C1044.63,-164.76 1035.23,-160.68 1026,-157.82 899.93,-118.71 497.93,-93.1 353.39,-84.96"/>
<polygon fill="black" stroke="black" points="353.92,-81.48 343.74,-84.42 353.53,-88.47 353.92,-81.48"/>
</g>
</g>
</svg>
